<svg version="1.1" id="Layer_1" xmlns="http://www.w3.org/2000/svg" xmlns:xlink="http://www.w3.org/1999/xlink" x="0px" y="0px"
	 viewBox="0 0 256 256" enable-background="new 0 0 256 256" xml:space="preserve">
<circle fill="#CE4B37" cx="128" cy="128" r="125"/>
<path fill="#B3392D" d="M253,128C253,59,197,3,128,3v250C197,253,253,197,253,128z"/>
<path fill="#FFFFFF" d="M128,76.1c-29.3,0-53.1,23.8-53.1,53.1s23.8,53.1,53.1,53.1s53.1-23.8,53.1-53.1S157.3,76.1,128,76.1z"/>
<circle fill="#FFFFFF" cx="128.5" cy="37.6" r="14.6"/>
<circle fill="#FFFFFF" cx="218.8" cy="128" r="14.6"/>
<circle fill="#FFFFFF" cx="128.5" cy="218.9" r="14.6"/>
<circle fill="#FFFFFF" cx="40.8" cy="128" r="14.6"/>
<circle fill="#FFFFFF" cx="64.3" cy="64.9" r="14.6"/>
<circle fill="#FFFFFF" cx="194.8" cy="64.9" r="14.6"/>
<circle fill="#FFFFFF" cx="63.3" cy="193.5" r="14.6"/>
<circle fill="#FFFFFF" cx="194.8" cy="193.5" r="14.6"/>
<g>
	<path fill="#CD4731" stroke="#CD4731" stroke-width="0.5769" stroke-miterlimit="10" d="M132.5,122.1c1.4-4.9,1.3-5.6-2.2-5.6v-0.6
		h9.2v0.6c-2.6,0-4.1,0.7-5.3,5.1l-7.6,26.7l-9-23.2l-8.4,23.2h-0.2l-8.2-29.2c-0.4-1.6-1.5-2.5-4-2.5v-0.6h9.2v0.6
		c-2.4,0-3.3,0.4-2.8,2.4l6.5,24l8.2-23.2h0.1l8.6,23.1L132.5,122.1z"/>
	<path fill="#CD4731" stroke="#CD4731" stroke-width="0.5769" stroke-miterlimit="10" d="M147.4,118.7c0-1.7-0.7-2.2-3.9-2.2v-0.6
		h10.1v0.6c-3.2,0-3.9,0.5-3.9,2.2v25.1c0,1.7,0.7,2.4,3.9,2.4v0.6h-10.1v-0.6c3.2,0,3.9-0.7,3.9-2.4V118.7z"/>
</g>
</svg>
